<svg xmlns="http://www.w3.org/2000/svg" version="1.1" xmlns:xlink="http://www.w3.org/1999/xlink" xmlns:svgjs="http://svgjs.com/svgjs" width="512" height="512" x="0" y="0" viewBox="0 0 453.54 453.54" style="enable-background:new 0 0 512 512" xml:space="preserve" class=""><g><linearGradient xmlns="http://www.w3.org/2000/svg" id="SVGID_1_" gradientUnits="userSpaceOnUse" x1="175.852" x2="306.511" y1="5.439" y2="573.409"><stop offset="0" stop-color="#442683"></stop><stop offset=".0017" stop-color="#472683"></stop><stop offset=".0128" stop-color="#592583"></stop><stop offset=".0255" stop-color="#672383"></stop><stop offset=".041" stop-color="#712283"></stop><stop offset=".0617" stop-color="#762282"></stop><stop offset=".1099" stop-color="#782182"></stop><stop offset=".1676" stop-color="#942170"></stop><stop offset=".2686" stop-color="#bf1a4a"></stop><stop offset=".3141" stop-color="#ce1539"></stop><stop offset=".5602" stop-color="#dd7f43"></stop><stop offset=".8168" stop-color="#e7be4d"></stop><stop offset="1" stop-color="#e5b34b"></stop></linearGradient><linearGradient xmlns="http://www.w3.org/2000/svg" id="SVGID_2_" gradientTransform="matrix(.734 -.679 .679 .734 -84.036 271.117)" gradientUnits="userSpaceOnUse" x1="292.691" x2="226.029" y1="79.459" y2="532.766"><stop offset=".00000003994" stop-color="#622483"></stop><stop offset=".3665" stop-color="#c81537"></stop><stop offset=".6073" stop-color="#d9643e"></stop><stop offset=".8168" stop-color="#e7be4d"></stop><stop offset="1" stop-color="#e7c04d"></stop></linearGradient><g xmlns="http://www.w3.org/2000/svg"><path d="m453.542 119.108v215.341c0 65.777-53.333 119.093-119.11 119.093h-215.324c-65.777 0-119.11-53.315-119.11-119.093v-215.341c0-65.777 53.333-119.11 119.11-119.11h215.323c65.778 0 119.111 53.333 119.111 119.11z" fill="url(#SVGID_1_)" data-original="url(#SVGID_1_)"></path><path d="m356.067 135.339-15.983-22.47c-8.906-13.388-24.124-22.205-41.421-22.205h-141.866c-27.467 0-49.724 22.258-49.724 49.706v141.883c0 11.272 3.75 21.654 10.062 29.991l24.764 34.862c3.218 4.835 7.253 9.049 11.912 12.498l103.893 93.938h76.729c65.777 0 119.11-53.315 119.11-119.093v-92.071zm-186.541 174.985c-5.013 0-9.813-.924-14.258-2.56 0-.302-.018-.586-.018-.889v-116.407c0-22.542 18.258-40.8 40.8-40.8h13.938c-26.792 7.698-46.417 32.373-46.417 61.653 0 14.364 4.729 27.627 12.711 38.311l24.764 34.88c8.32 12.319 20.836 21.601 35.484 25.813h-67.004zm58.204-56.496c-5.635 0-11.004-1.103-15.929-3.094-.036-.692-.054-1.388-.054-2.063 0-23.484 19.022-42.524 42.507-42.524 5.635 0 11.004 1.12 15.928 3.111.036.675.054 1.369.054 2.063.001 23.467-19.022 42.507-42.506 42.507zm99.003 15.697c0 22.524-18.275 40.799-40.8 40.799h-13.955c26.808-7.696 46.435-32.391 46.435-61.652 0-14.382-4.729-27.645-12.711-38.329l-24.764-34.879c-8.32-12.32-20.836-21.601-35.485-25.796h40.676l25.581 28.486c3.728 4.259 5.958 6.587 11.076 6.631 1.387.012 2.702-.231 3.947-.64zm-9.617-119.59c3.343.373 6.56 1.156 9.601 2.293 0 .285.017.587.017.872v6.75z" fill="url(#SVGID_2_)" data-original="url(#SVGID_2_)"></path><g fill="#fff"><path d="m298.665 90.657h-141.875c-27.458 0-49.718 22.26-49.718 49.719v141.874c0 27.46 22.26 49.718 49.718 49.718h141.875c27.459 0 49.719-22.258 49.719-49.718v-141.874c0-27.459-22.26-49.719-49.719-49.719zm28.067 178.864c0 22.527-18.266 40.797-40.797 40.797h-116.415c-22.531 0-40.795-18.27-40.795-40.797v-116.415c0-22.532 18.264-40.798 40.795-40.798h116.415c22.532 0 40.797 18.266 40.797 40.798z" fill="#ffffff" data-original="#ffffff"></path><path d="m227.727 147.16c-35.43 0-64.153 28.721-64.153 64.152 0 35.433 28.723 64.152 64.153 64.152 35.432 0 64.155-28.72 64.155-64.152-.001-35.431-28.723-64.152-64.155-64.152zm0 106.664c-23.477 0-42.512-19.032-42.512-42.512 0-23.479 19.035-42.511 42.512-42.511 23.48 0 42.514 19.032 42.514 42.511-.001 23.48-19.034 42.512-42.514 42.512z" fill="#ffffff" data-original="#ffffff"></path><circle cx="296.26" cy="142.243" r="12.563" fill="#ffffff" data-original="#ffffff"></circle></g></g></g></svg>