<svg xmlns="http://www.w3.org/2000/svg" version="1.1" xmlns:xlink="http://www.w3.org/1999/xlink" xmlns:svgjs="http://svgjs.com/svgjs" width="512" height="512" x="0" y="0" viewBox="0 0 512 512" style="enable-background:new 0 0 512 512" xml:space="preserve" class=""><g><g xmlns="http://www.w3.org/2000/svg"><path d="m474.5 31.18h-79.208c-3.014-17.678-18.433-31.18-36.956-31.18h-204.672c-18.523 0-33.942 13.502-36.957 31.18h-79.207c-20.678 0-37.5 16.822-37.5 37.5v299.64c0 20.678 16.822 37.5 37.5 37.5h166.77v36.618h-.652c-24.192 0-43.875 19.682-43.875 43.874v13.338c0 6.81 5.54 12.35 12.35 12.35h167.812c6.81 0 12.35-5.54 12.35-12.35v-13.338c0-24.192-19.682-43.874-43.874-43.874h-.651v-36.618h89.038c4.143 0 7.5-3.357 7.5-7.5s-3.357-7.5-7.5-7.5h-359.268c-12.407 0-22.5-10.094-22.5-22.5v-299.64c0-12.406 10.093-22.5 22.5-22.5h78.664v15h-74.664c-6.341 0-11.5 5.159-11.5 11.5v291.64c0 6.341 5.159 11.5 11.5 11.5h429c6.341 0 11.5-5.159 11.5-11.5v-291.64c0-6.341-5.159-11.5-11.5-11.5h-74.664v-15h78.664c12.406 0 22.5 10.094 22.5 22.5v299.64c0 12.406-10.094 22.5-22.5 22.5h-42.731c-4.143 0-7.5 3.357-7.5 7.5s3.357 7.5 7.5 7.5h42.731c20.678 0 37.5-16.822 37.5-37.5v-299.64c0-20.678-16.822-37.5-37.5-37.5zm-255.23 374.64h73.46v36.618h-73.46zm-7.5 51.62c.013 0 .026-.002.039-.002h88.383c.013 0 .025.002.039.002s.026-.002.039-.002h8.113c15.921 0 28.874 12.953 28.874 28.874v10.688h-162.513v-10.688c0-15.921 12.953-28.874 28.875-28.874h8.113c.012 0 .025.002.038.002zm169.066-96.624h-249.672v-222.147c0-4.143-3.358-7.5-7.5-7.5s-7.5 3.357-7.5 7.5v222.151h-71.164v-284.64h71.164v27.489c0 4.143 3.358 7.5 7.5 7.5s7.5-3.357 7.5-7.5v-66.169c0-12.406 10.093-22.5 22.5-22.5h204.672c12.406 0 22.5 10.094 22.5 22.5zm86.164-284.636v284.64h-71.164v-284.64zm-124.644 239.82h-172.713c-4.142 0-7.5 3.357-7.5 7.5s3.358 7.5 7.5 7.5h172.713c4.143 0 7.5-3.357 7.5-7.5s-3.357-7.5-7.5-7.5zm0-45h-172.713c-4.142 0-7.5 3.357-7.5 7.5s3.358 7.5 7.5 7.5h172.713c4.143 0 7.5-3.357 7.5-7.5s-3.357-7.5-7.5-7.5zm-35.964-170.802c-8.896-8.094-22.66-7.632-31.339 1.045l-34.165 34.165-4.24-4.24c-8.631-8.719-23.165-8.657-31.821-.001-8.772 8.772-8.773 23.046 0 31.819l16.617 16.619c5.188 5.186 12.092 8.041 19.443 8.041 7.352 0 14.257-2.856 19.446-8.044l46.839-46.84c8.987-8.912 8.507-24.113-.78-32.564zm-9.827 21.957-46.839 46.84c-2.355 2.354-5.494 3.651-8.839 3.651s-6.484-1.296-8.837-3.648l-16.616-16.617c-2.924-2.925-2.924-7.683 0-10.606 2.886-2.886 7.734-2.902 10.607-.001l7.421 7.422c1.983 1.984 4.62 3.077 7.425 3.077s5.441-1.092 7.425-3.075l37.348-37.347c2.955-2.957 7.728-3.204 10.636-.559 3.119 2.837 3.278 7.89.269 10.863zm-40.565-77.155c-52.935 0-96 43.065-96 96s43.065 96 96 96 96-43.065 96-96-43.065-96-96-96zm0 177c-44.664 0-81-36.337-81-81s36.336-81 81-81c44.663 0 81 36.337 81 81s-36.337 81-81 81z" fill="#000000" data-original="#000000" class=""></path></g></g></svg>